HIERARCHY
ROOT Hips
{
  OFFSET 0.000000 0.000000 0.000000
  CHANNELS 6 Xposition Yposition Zposition Zrotation Xrotation Yrotation
  JOINT Spine
  {
    OFFSET 0.000000 5.000000 0.000000
    CHANNELS 3 Zrotation Xrotation Yrotation
    JOINT Spine1
    {
      OFFSET 0.000000 5.000000 0.000000
      CHANNELS 3 Zrotation Xrotation Yrotation
      JOINT Spine2
      {
        OFFSET 0.000000 5.000000 0.000000
        CHANNELS 3 Zrotation Xrotation Yrotation
        JOINT Neck
        {
          OFFSET 0.000000 5.000000 0.000000
          CHANNELS 3 Zrotation Xrotation Yrotation
          JOINT Head
          {
            OFFSET 0.000000 3.000000 0.000000
            CHANNELS 3 Zrotation Xrotation Yrotation
            End Site
            {
              OFFSET 0.0 0.0 5.0
            }
          }
        }
        JOINT LeftShoulder
        {
          OFFSET -3.000000 3.000000 0.000000
          CHANNELS 3 Zrotation Xrotation Yrotation
          JOINT LeftArm
          {
            OFFSET -7.000000 0.000000 0.000000
            CHANNELS 3 Zrotation Xrotation Yrotation
            JOINT LeftForeArm
            {
              OFFSET -12.000000 0.000000 0.000000
              CHANNELS 3 Zrotation Xrotation Yrotation
              JOINT LeftHand
              {
                OFFSET -8.000000 0.000000 0.000000
                CHANNELS 3 Zrotation Xrotation Yrotation
                End Site
                {
                  OFFSET 0.0 0.0 5.0
                }
              }
            }
          }
        }
        JOINT RightShoulder
        {
          OFFSET 3.000000 3.000000 0.000000
          CHANNELS 3 Zrotation Xrotation Yrotation
          JOINT RightArm
          {
            OFFSET 7.000000 0.000000 0.000000
            CHANNELS 3 Zrotation Xrotation Yrotation
            JOINT RightForeArm
            {
              OFFSET 12.000000 0.000000 0.000000
              CHANNELS 3 Zrotation Xrotation Yrotation
              JOINT RightHand
              {
                OFFSET 8.000000 0.000000 0.000000
                CHANNELS 3 Zrotation Xrotation Yrotation
                End Site
                {
                  OFFSET 0.0 0.0 5.0
                }
              }
            }
          }
        }
      }
    }
  }
  JOINT LeftUpLeg
  {
    OFFSET -2.000000 0.000000 0.000000
    CHANNELS 3 Zrotation Xrotation Yrotation
    JOINT LeftLeg
    {
      OFFSET 0.000000 -18.000000 0.000000
      CHANNELS 3 Zrotation Xrotation Yrotation
      JOINT LeftFoot
      {
        OFFSET 0.000000 -18.000000 0.000000
        CHANNELS 3 Zrotation Xrotation Yrotation
        JOINT LeftToeBase
        {
          OFFSET 0.000000 0.000000 8.000000
          CHANNELS 3 Zrotation Xrotation Yrotation
          End Site
          {
            OFFSET 0.0 0.0 5.0
          }
        }
      }
    }
  }
  JOINT RightUpLeg
  {
    OFFSET 2.000000 0.000000 0.000000
    CHANNELS 3 Zrotation Xrotation Yrotation
    JOINT RightLeg
    {
      OFFSET 0.000000 -18.000000 0.000000
      CHANNELS 3 Zrotation Xrotation Yrotation
      JOINT RightFoot
      {
        OFFSET 0.000000 -18.000000 0.000000
        CHANNELS 3 Zrotation Xrotation Yrotation
        JOINT RightToeBase
        {
          OFFSET 0.000000 0.000000 8.000000
          CHANNELS 3 Zrotation Xrotation Yrotation
          End Site
          {
            OFFSET 0.0 0.0 5.0
          }
        }
      }
    }
  }
}
MOTION
Frames: 7
Frame Time: 0.033333
0.284313 -0.015091 1.058144 0.000000 0.000000 0.000000 -1.377129 0.252736 -30.552898 14.654931 8.619133 -9.452954 -23.296286 12.847400 -17.356142 -2.053358 26.520118 -28.417654 -2.053358 26.520118 -28.417654 3.692418 3.447920 -11.855554 -9.014431 10.157005 -21.566328 -0.286493 12.312966 -29.336602 -0.286493 12.312966 -29.336602 -1.906705 -19.931821 -21.447706 5.128863 -0.001602 -20.207733 -4.624746 5.268897 -31.946599 5.556256 -14.054252 45.759418 122.895119 42.966605 41.331808 106.935399 60.426193 74.987868 -1.930930 -29.914867 -2.658115 117.572077 -20.108972 30.180479 140.948271 -19.661234 23.374731 7.003521 26.524639 -35.687287 -17.511539 33.946974 -28.957977 0.000000 0.000000 0.000000
0.311394 -0.032788 1.067890 0.000000 0.000000 0.000000 -2.571061 5.075852 -26.902811 13.849143 9.095348 -11.884703 -20.488102 11.758704 -26.607457 -1.152112 21.085389 -39.872251 -1.152112 21.085389 -39.872251 3.146229 5.192757 -12.881446 -8.356321 10.122683 -26.987373 0.997873 10.844076 -37.401002 0.997873 10.844076 -37.401002 -3.109358 -16.374785 -26.134656 4.108829 3.136445 -28.104882 -7.832409 3.319019 -44.398527 -18.535593 -21.634427 5.367049 116.333709 -3.543699 26.371780 110.296318 36.429606 74.634603 1.938801 -27.210402 1.297790 116.767713 -15.663260 28.781833 136.895741 -12.751979 27.517247 12.556468 20.340697 -34.454598 -29.400826 32.015878 -24.625742 0.000000 0.000000 0.000000
0.297839 0.000789 1.068124 0.000000 0.000000 0.000000 -5.141052 4.567435 -31.507421 10.233506 7.184269 -17.453185 -22.327942 12.807662 -31.011187 -3.100581 12.604221 -40.882477 -3.100581 12.604221 -40.882477 0.126062 2.210101 -18.564405 -7.418282 11.022602 -31.608494 1.165889 11.304646 -42.146356 1.165889 11.304646 -42.146356 5.243144 -13.391844 -28.105302 14.898270 5.237602 -26.891678 -5.061029 7.929178 -42.487036 -0.618304 16.741450 -52.129883 106.039899 -42.151425 -48.975015 123.705220 -8.510405 20.113695 8.596517 -24.590151 3.969282 121.317590 -12.054263 27.874352 137.182896 -3.297544 24.098912 6.583098 24.553886 -18.924704 -29.947911 29.660158 -10.152188 0.000000 0.000000 0.000000
0.295278 0.006077 1.068229 0.000000 0.000000 0.000000 -7.280671 4.671651 -33.301170 9.976808 6.953869 -20.238932 -22.970131 13.001584 -32.171691 -4.606216 8.273310 -39.856279 -4.606216 8.273310 -39.856279 -0.292450 1.703593 -20.277726 -6.986440 10.690228 -31.504317 1.025304 10.227497 -41.370160 1.025304 10.227497 -41.370160 7.209310 -10.179952 -27.802624 17.777558 8.176879 -27.420382 -3.926200 7.646366 -40.864801 4.839799 21.835682 -57.189198 106.062480 -42.833559 -58.656162 122.400217 -9.145933 17.433757 9.780209 -21.807012 6.337385 122.069266 -7.993232 26.551270 137.755676 -11.443804 31.973917 3.141230 22.260076 -16.505667 -33.460299 26.756842 -8.635339 0.000000 0.000000 0.000000
0.296069 0.004074 1.067540 0.000000 0.000000 0.000000 -7.266154 4.854025 -33.079257 10.316823 6.877709 -20.507847 -22.899693 13.231451 -32.478842 -4.949270 7.623655 -39.992490 -4.949270 7.623655 -39.992490 0.069243 1.679691 -20.529369 -7.062043 10.990080 -31.774345 0.852957 10.544294 -41.918894 0.852957 10.544294 -41.918894 7.137107 -9.943628 -28.188506 17.708399 8.320693 -28.032129 -3.917654 7.625065 -41.125888 4.616242 21.719808 -57.807115 105.705507 -43.543537 -58.862147 121.103163 -9.166421 18.384958 9.604266 -20.910802 6.714880 121.646860 -7.083062 25.817702 136.661138 -9.911544 31.863602 2.960470 21.941118 -16.075413 -33.613118 26.310012 -8.339368 0.000000 0.000000 0.000000
0.294512 0.006344 1.068374 0.000000 0.000000 0.000000 -7.612835 5.445991 -32.909390 9.944961 6.481060 -21.124355 -22.673130 13.227787 -32.936707 -5.330322 6.408873 -39.833152 -5.330322 6.408873 -39.833152 -0.246108 1.402013 -20.547817 -7.052922 10.895943 -31.150889 1.013040 10.304636 -41.281067 1.013040 10.304636 -41.281067 7.359909 -8.889628 -28.336754 18.197765 9.397635 -28.552511 -3.308306 7.490159 -41.309808 4.206574 21.330589 -58.259007 105.144393 -44.143241 -58.694302 118.876234 -8.479437 20.163685 9.716257 -20.535961 6.617103 121.901845 -6.918683 25.393319 136.096936 -9.612773 32.877032 2.080664 20.740306 -16.288822 -34.553236 25.248179 -8.937758 0.000000 0.000000 0.000000
0.294434 0.006191 1.069108 0.000000 0.000000 0.000000 -7.969566 5.299257 -33.334975 9.884539 6.510678 -21.944294 -22.898952 13.283600 -33.513670 -5.595186 5.410172 -40.047708 -5.595186 5.410172 -40.047708 -0.339951 1.430106 -21.152521 -6.784157 10.976896 -31.545250 1.191810 10.267041 -41.708258 1.191810 10.267041 -41.708258 7.829831 -8.020109 -27.929991 18.586124 10.278987 -28.196918 -2.916658 7.408278 -40.797913 4.813916 21.610410 -57.808338 105.378088 -43.243374 -58.920149 118.000070 -6.955331 20.183170 9.439667 -19.705367 6.604046 120.847769 -6.548815 24.391560 133.345353 -9.037104 31.378997 1.027086 20.110854 -15.791079 -35.619699 24.503214 -8.677673 0.000000 0.000000 0.000000
